HIERARCHY
ROOT Hips
{
	OFFSET 0.000000 0.000000 0.000000
	CHANNELS 6 Xposition Yposition Zposition Xrotation Yrotation Zrotation
	JOINT LeftUpLeg_virtual
	{
		OFFSET 0.000000 0.000000 0.000000
		CHANNELS 3 Xrotation Yrotation Zrotation
		JOINT LeftUpLeg
		{
			OFFSET 10.205400 -3.823500 0.155100
			CHANNELS 3 Xrotation Yrotation Zrotation
			JOINT LeftLeg
			{
				OFFSET 0.708757 -12.982077 0.567790
				CHANNELS 3 Xrotation Yrotation Zrotation
				JOINT LeftFoot
				{
					OFFSET -0.708756 -10.717838 -2.184338
					CHANNELS 3 Xrotation Yrotation Zrotation
					JOINT LeftToeBase
					{
						OFFSET 0.108149 -7.191104 7.560241
						CHANNELS 3 Xrotation Yrotation Zrotation
						JOINT LeftToe_End
						{
							OFFSET 0.070230 0.081724 4.490308
							CHANNELS 3 Xrotation Yrotation Zrotation
							End Site
							{
								OFFSET 0 0 0
							}
						}
					}
				}
			}
		}
	}
	JOINT RightUpLeg_virtual
	{
		OFFSET 0.000000 0.000000 0.000000
		CHANNELS 3 Xrotation Yrotation Zrotation
		JOINT RightUpLeg
		{
			OFFSET -10.205400 -3.823500 0.005500
			CHANNELS 3 Xrotation Yrotation Zrotation
			JOINT RightLeg
			{
				OFFSET -0.708756 -12.982134 0.610632
				CHANNELS 3 Xrotation Yrotation Zrotation
				JOINT RightFoot
				{
					OFFSET 0.708754 -10.717769 -1.945823
					CHANNELS 3 Xrotation Yrotation Zrotation
					JOINT RightToeBase
					{
						OFFSET -0.108140 -7.191069 7.372968
						CHANNELS 3 Xrotation Yrotation Zrotation
						JOINT RightToe_End
						{
							OFFSET -0.070227 0.081735 4.479403
							CHANNELS 3 Xrotation Yrotation Zrotation
							End Site
							{
								OFFSET 0 0 0
							}
						}
					}
				}
			}
		}
	}
	JOINT Spine_virtual
	{
		OFFSET 0.000000 0.000000 0.000000
		CHANNELS 3 Xrotation Yrotation Zrotation
		JOINT Spine
		{
			OFFSET 0.000000 6.876099 0.125700
			CHANNELS 3 Xrotation Yrotation Zrotation
			JOINT Spine1
			{
				OFFSET 0.000000 5.730043 0.104720
				CHANNELS 3 Xrotation Yrotation Zrotation
				JOINT Spine1_split
				{
					OFFSET 0.000000 5.730043 0.104720
					CHANNELS 3 Xrotation Yrotation Zrotation
					JOINT Spine2
					{
						OFFSET 0.000000 5.730043 0.104720
						CHANNELS 3 Xrotation Yrotation Zrotation
						JOINT Neck_virtual
						{
							OFFSET 0.000000 0.000000 0.000000
							CHANNELS 3 Xrotation Yrotation Zrotation
							JOINT Neck
							{
								OFFSET 0.000000 10.314075 0.188496
								CHANNELS 3 Xrotation Yrotation Zrotation
								JOINT Head
								{
									OFFSET 0.000000 7.643700 -2.377400
									CHANNELS 3 Xrotation Yrotation Zrotation
									JOINT HeadTop_End
									{
										OFFSET 0.000000 43.788605 -13.619600
										CHANNELS 3 Xrotation Yrotation Zrotation
										End Site
										{
											OFFSET 0 0 0
										}
									}
								}
							}
						}
						JOINT LeftShoulder_virtual
						{
							OFFSET 0.000000 0.000000 0.000000
							CHANNELS 3 Xrotation Yrotation Zrotation
							JOINT LeftShoulder
							{
								OFFSET 2.196100 4.412489 0.087492
								CHANNELS 3 Xrotation Yrotation Zrotation
								JOINT LeftShoulder_split
								{
									OFFSET 2.196100 4.412489 0.087492
									CHANNELS 3 Xrotation Yrotation Zrotation
									JOINT LeftArm
									{
										OFFSET 8.771219 -2.981674 -0.026999
										CHANNELS 3 Xrotation Yrotation Zrotation
										JOINT LeftForeArm
										{
											OFFSET 8.512804 0.000000 -0.000000
											CHANNELS 3 Xrotation Yrotation Zrotation
											JOINT LeftHand
											{
												OFFSET 18.484802 0.000000 -0.000000
												CHANNELS 3 Xrotation Yrotation Zrotation
												End Site
												{
													OFFSET 0 0 0
												}
											}
										}
									}
								}
							}
						}
						JOINT RightShoulder_virtual
						{
							OFFSET 0.000000 0.000000 0.000000
							CHANNELS 3 Xrotation Yrotation Zrotation
							JOINT RightShoulder
							{
								OFFSET -2.196100 4.412496 0.070690
								CHANNELS 3 Xrotation Yrotation Zrotation
								JOINT RightShoulder_split
								{
									OFFSET -2.196100 4.412496 0.070690
									CHANNELS 3 Xrotation Yrotation Zrotation
									JOINT RightArm
									{
										OFFSET -8.771282 -2.981682 -0.094208
										CHANNELS 3 Xrotation Yrotation Zrotation
										JOINT RightForeArm
										{
											OFFSET -8.494598 0.000000 0.000000
											CHANNELS 3 Xrotation Yrotation Zrotation
											JOINT RightHand
											{
												OFFSET -18.483803 0.000000 0.000001
												CHANNELS 3 Xrotation Yrotation Zrotation
												End Site
												{
													OFFSET 0 0 0
												}
											}
										}
									}
								}
							}
						}
					}
				}
			}
		}
	}
}
MOTION
Frames: 10
Frame Time: 0.03333333
0.108600 32.864113 -2.928270 0.000000 0.000000 0.000000 2.466227 -7.866645 11.465150 -32.605520 2.576588 -13.889444 7.637632 0.659972 2.378187 21.365127 -23.870522 3.298585 4.471350 2.130406 0.265982 0.000000 0.000000 0.000000 2.564850 -7.146892 11.503606 21.936389 -19.401846 -10.476344 22.072281 19.199552 0.630328 -33.862097 -16.646670 6.217336 -19.496362 8.147743 -2.845257 0.000000 0.000000 0.000000 1.942356 -3.144540 9.775749 3.147950 3.686905 0.927729 4.808434 6.044690 1.983319 0.076088 -0.948135 0.180306 0.000000 0.000000 0.000000 5.517160 8.328483 2.482061 -15.180625 -1.564420 5.712489 1.475409 -28.684691 -23.469228 0.000000 0.000000 0.000000 3.830305 6.975488 1.758978 -1.914596 -6.244687 -7.876151 4.223956 3.699028 -2.493487 -17.454823 -29.610257 -72.684394 9.090854 -63.276409 6.120232 0.000000 0.000000 0.000000 5.637189 7.147309 2.386282 -2.252911 13.357239 17.228942 -9.785072 -0.182807 1.308283 -32.413513 57.466698 71.957334 -9.501311 35.830373 9.429102 0.000000 0.000000 0.000000 
0.133296 32.896416 -2.965950 0.000000 0.000000 0.000000 2.527067 -7.348245 11.276474 -32.500093 2.159512 -13.917239 7.614836 0.705012 2.460237 20.886297 -24.084874 3.641694 4.606096 2.122709 0.226718 0.000000 0.000000 0.000000 2.512164 -6.671430 11.305479 22.190337 -19.454098 -10.420850 21.428018 19.221815 0.670506 -34.075076 -16.827868 6.542293 -19.396177 8.286315 -3.092489 0.000000 0.000000 0.000000 2.202505 -2.942495 9.591146 3.100426 3.692191 1.058176 4.800436 6.008134 1.966856 0.112675 -0.933469 0.184696 0.000000 0.000000 0.000000 5.539921 8.289405 2.463359 -15.030455 -1.469895 5.633931 1.482231 -28.736464 -23.480831 0.000000 0.000000 0.000000 3.774095 6.940212 1.731179 -1.911285 -6.320024 -7.870367 4.431019 3.561381 -2.411482 -17.762517 -29.690703 -72.771574 9.183099 -63.402146 6.200525 0.000000 0.000000 0.000000 5.600114 7.113797 2.384668 -2.205540 13.168897 17.090380 -10.055197 -0.249057 1.263990 -32.770561 57.471855 72.162328 -9.645640 36.255792 9.511124 0.000000 0.000000 0.000000 
0.152274 32.935722 -3.019865 0.000000 0.000000 0.000000 2.518147 -6.937546 10.936697 -32.488901 1.897141 -13.779127 7.961701 0.705078 2.641549 20.254378 -24.569667 3.397878 4.766536 2.125806 0.333904 0.000000 0.000000 0.000000 2.479335 -6.473140 10.943214 22.811761 -19.841614 -9.988224 19.884682 19.223159 0.837437 -34.922935 -16.943693 6.434324 -17.859819 8.407370 -3.697915 0.000000 0.000000 0.000000 2.445350 -2.762373 9.258180 3.124729 3.751374 1.324479 4.754256 5.951909 1.901018 0.136409 -0.902219 0.176598 0.000000 0.000000 0.000000 5.547231 8.230209 2.395415 -14.941703 -1.402556 5.642761 1.465846 -28.780180 -23.398333 0.000000 0.000000 0.000000 3.707555 6.879819 1.653512 -1.910071 -6.438795 -7.863812 4.604730 3.456473 -2.349224 -18.164029 -29.932488 -72.811579 9.239387 -63.538989 6.246646 0.000000 0.000000 0.000000 5.543922 7.054373 2.337896 -2.159016 12.890901 16.908294 -10.268626 -0.300423 1.475948 -33.003737 57.361909 72.224490 -9.961076 37.005842 9.701114 0.000000 0.000000 0.000000 
0.158492 32.961781 -3.057306 0.000000 0.000000 0.000000 2.436241 -6.746375 10.508124 -32.502831 1.777595 -13.554686 8.475694 0.701142 2.935748 19.415706 -25.226216 2.698871 4.792425 2.127185 0.632447 0.000000 0.000000 0.000000 2.460676 -6.555350 10.484182 23.653645 -20.512011 -9.241340 18.056169 19.136867 1.112135 -35.936067 -17.023451 5.930405 -15.599983 8.476126 -4.482538 0.000000 0.000000 0.000000 2.604714 -2.677418 8.846487 3.196974 3.872942 1.671674 4.674409 5.885069 1.793234 0.137140 -0.872246 0.162320 0.000000 0.000000 0.000000 5.530818 8.163019 2.290639 -14.917792 -1.372840 5.727094 1.415383 -28.829733 -23.226642 0.000000 0.000000 0.000000 3.626328 6.806504 1.536865 -1.908931 -6.565209 -7.855111 4.680524 3.385621 -2.268998 -18.559569 -30.304955 -72.783698 9.208349 -63.605590 6.213641 0.000000 0.000000 0.000000 5.471341 6.978805 2.251755 -2.123397 12.554108 16.701669 -10.350553 -0.190771 1.815022 -33.026266 57.185001 72.133778 -10.396114 37.939133 9.975632 0.000000 0.000000 0.000000 
0.149240 32.969341 -3.052679 0.000000 0.000000 0.000000 2.322022 -6.815247 10.038040 -32.469097 1.746177 -13.331517 8.964733 0.719472 3.324601 18.412725 -25.913099 1.812548 4.645788 2.112645 1.035886 0.000000 0.000000 0.000000 2.476912 -6.826815 9.983653 24.509490 -21.318028 -8.392860 16.090778 19.059363 1.476045 -36.563522 -17.101641 5.599036 -14.035974 8.471693 -5.250866 0.000000 0.000000 0.000000 2.650398 -2.662342 8.393828 3.314424 4.065568 2.044751 4.564956 5.822122 1.662682 0.125612 -0.860783 0.146694 0.000000 0.000000 0.000000 5.479836 8.097573 2.171757 -14.959286 -1.388482 5.862972 1.303729 -28.888613 -22.992888 0.000000 0.000000 0.000000 3.534306 6.734952 1.402502 -1.905104 -6.652685 -7.829077 4.679964 3.343705 -2.208001 -18.865543 -30.803696 -72.690042 9.049940 -63.580653 6.074163 0.000000 0.000000 0.000000 5.386874 6.901842 2.139735 -2.104663 12.199234 16.479083 -10.227766 -0.008124 2.037782 -32.859627 56.967859 71.958720 -10.913927 38.972004 10.318474 0.000000 0.000000 0.000000 
0.138092 32.979504 -3.018732 0.000000 0.000000 0.000000 2.291303 -7.052604 9.561484 -32.438170 1.739909 -13.143464 9.374567 0.811760 3.755921 17.373409 -26.523662 1.072478 4.472442 2.077759 1.391703 0.000000 0.000000 0.000000 2.555012 -7.243203 9.459366 25.312078 -22.013006 -7.616849 14.126921 19.092810 1.825956 -36.683652 -17.130850 5.725193 -13.586580 8.413061 -5.881688 0.000000 0.000000 0.000000 2.687788 -2.691058 7.936059 3.447705 4.320041 2.410450 4.436022 5.773953 1.533499 0.096268 -0.869075 0.138397 0.000000 0.000000 0.000000 5.390871 8.036956 2.063448 -15.051871 -1.435246 6.036691 1.099148 -28.970288 -22.720450 0.000000 0.000000 0.000000 3.422967 6.676203 1.270245 -1.897290 -6.667416 -7.776922 4.649859 3.247236 -2.130132 -19.048952 -31.392512 -72.565508 8.761931 -63.485987 5.834123 0.000000 0.000000 0.000000 5.299764 6.831984 2.021048 -2.102816 11.890435 16.240110 -10.077329 0.077921 2.168987 -32.625850 56.732569 71.804693 -11.489991 40.068212 10.728067 0.000000 0.000000 0.000000 
0.139810 33.000259 -2.972240 0.000000 0.000000 0.000000 2.356038 -7.351761 9.074839 -32.529940 1.715520 -12.954149 9.754943 0.967058 4.147267 16.599318 -26.985644 0.700975 4.467370 2.044959 1.527089 0.000000 0.000000 0.000000 2.677023 -7.762824 8.954130 26.081141 -22.406847 -7.026619 12.246701 19.259921 2.127805 -36.635946 -17.003099 6.051041 -13.306486 8.328674 -6.328845 0.000000 0.000000 0.000000 2.742109 -2.755265 7.495338 3.582398 4.619798 2.730606 4.311920 5.739985 1.421882 0.072611 -0.889821 0.122191 0.000000 0.000000 0.000000 5.274008 7.986281 1.988393 -15.164905 -1.490804 6.225892 0.804990 -29.099570 -22.430341 0.000000 0.000000 0.000000 3.287117 6.632230 1.153970 -1.881097 -6.608060 -7.700091 4.608875 3.075163 -2.018399 -19.142546 -32.050461 -72.464216 8.372889 -63.362627 5.522526 0.000000 0.000000 0.000000 5.205230 6.775989 1.917193 -2.114128 11.654287 16.000420 -9.992515 0.065624 2.220950 -32.512445 56.425917 71.769203 -12.100215 41.166937 11.187269 0.000000 0.000000 0.000000 
0.152981 33.036362 -2.931173 0.000000 0.000000 0.000000 2.516364 -7.692666 8.571813 -32.886384 1.644133 -12.700205 10.225703 1.219584 4.412840 16.293382 -27.243265 0.842047 4.660095 2.031380 1.353944 0.000000 0.000000 0.000000 2.844996 -8.316310 8.484168 26.740121 -22.426661 -6.666214 10.516087 19.478986 2.397053 -36.788536 -16.737573 6.356884 -12.497407 8.292257 -6.630724 0.000000 0.000000 0.000000 2.810410 -2.913638 7.065414 3.725735 4.946383 2.989724 4.203958 5.718227 1.343227 0.066175 -0.915265 0.120936 0.000000 0.000000 0.000000 5.137994 7.941740 1.959047 -15.255533 -1.537117 6.423760 0.469455 -29.314830 -22.120341 0.000000 0.000000 0.000000 3.134252 6.597917 1.061342 -1.854338 -6.479955 -7.604628 4.524534 2.857311 -1.881240 -19.179893 -32.744852 -72.417231 7.932671 -63.267899 5.189141 0.000000 0.000000 0.000000 5.106372 6.740815 1.841717 -2.137374 11.510358 15.782971 -9.981697 -0.003492 2.209007 -32.572411 56.012551 71.862715 -12.726872 42.192742 11.695736 0.000000 0.000000 0.000000 
0.186178 33.074100 -2.878544 0.000000 0.000000 0.000000 2.789610 -8.199241 8.063749 -33.495524 1.507694 -12.393482 10.901691 1.624202 4.486615 16.464154 -27.234307 1.561518 4.935507 2.052001 0.922430 0.000000 0.000000 0.000000 3.075276 -8.898961 8.044493 27.148566 -22.056571 -6.517795 9.268169 19.674037 2.556553 -37.037742 -16.573963 6.919090 -11.819728 8.448647 -6.942808 0.000000 0.000000 0.000000 2.897932 -3.193370 6.645949 3.834457 5.285867 3.183365 4.112113 5.704656 1.302620 0.070880 -0.950658 0.122777 0.000000 0.000000 0.000000 4.991673 7.901363 1.969963 -15.291877 -1.538692 6.617025 0.185563 -29.610711 -21.762243 0.000000 0.000000 0.000000 2.966609 6.574695 0.993068 -1.813365 -6.306474 -7.490002 4.360785 2.651641 -1.779153 -19.180836 -33.440493 -72.424997 7.479100 -63.230155 4.869989 0.000000 0.000000 0.000000 5.006865 6.718367 1.796567 -2.168634 11.466255 15.596279 -10.079962 -0.104472 2.244418 -32.761354 55.516204 71.995112 -13.337824 43.098880 12.249530 0.000000 0.000000 0.000000 
0.222630 33.104179 -2.817093 0.000000 0.000000 0.000000 3.071547 -8.915954 7.576684 -34.162834 1.409328 -12.018629 11.781392 2.174337 4.354768 16.896793 -26.908210 2.801695 5.231995 2.112166 0.280364 0.000000 0.000000 0.000000 3.240707 -9.440873 7.633741 27.120733 -21.297756 -6.579841 8.718100 19.762647 2.548193 -36.909987 -16.749680 8.035691 -12.051065 8.881182 -7.431325 0.000000 0.000000 0.000000 2.947896 -3.556256 6.239856 3.929693 5.634361 3.304657 4.039580 5.694459 1.285465 0.084509 -0.972158 0.126721 0.000000 0.000000 0.000000 4.852100 7.861634 2.006925 -15.260109 -1.480082 6.788017 0.045311 -29.918783 -21.349324 0.000000 0.000000 0.000000 2.802404 6.557826 0.947288 -1.755901 -6.104505 -7.366282 4.082901 2.565951 -1.746539 -19.163665 -34.095194 -72.455200 7.052506 -63.278417 4.607333 0.000000 0.000000 0.000000 4.914462 6.697154 1.771504 -2.195514 11.489071 15.432802 -10.121145 -0.088352 2.277022 -32.926815 54.980059 72.002113 -13.908853 43.937712 12.835499 0.000000 0.000000 0.000000 
